<mxfile host="app.diagrams.net" modified="2023-05-30T18:22:50.117Z" agent="Mozilla/5.0 (Macintosh; Intel Mac OS X 10_15_7) AppleWebKit/537.36 (KHTML, like Gecko) Chrome/110.0.0.0 Safari/537.36" etag="52CTPXn22so1_zmxyhbK" version="21.3.5" type="device" pages="10">
  <diagram id="t_7wr1zB4quzLCbS3wE7" name="Page-1">
    <mxGraphModel dx="984" dy="611" grid="1" gridSize="10" guides="1" tooltips="1" connect="1" arrows="1" fold="1" page="1" pageScale="1" pageWidth="827" pageHeight="1169" math="0" shadow="0">
      <root>
        <mxCell id="0" />
        <mxCell id="1" parent="0" />
        <mxCell id="e6EF-_AEEUWjI02vnWhg-1" value="" style="whiteSpace=wrap;html=1;rounded=1;fillColor=#f5f5f5;fontColor=#333333;strokeColor=#666666;opacity=50;" parent="1" vertex="1">
          <mxGeometry x="190" y="100" width="400" height="380" as="geometry" />
        </mxCell>
        <mxCell id="e6EF-_AEEUWjI02vnWhg-2" value="&lt;span style=&quot;font-size: 14px;&quot;&gt;一个传奇的开端，一个不灭的神话，这不仅仅是一部电影，而是作为一个走进新时代的标签，永远彪炳史册。Would you rate the previous review as positive, neutral or negative?&lt;/span&gt;" style="whiteSpace=wrap;html=1;aspect=fixed;rounded=1;align=left;spacingTop=5;spacingLeft=5;spacingRight=5;spacingBottom=5;verticalAlign=top;fontSize=14;fontStyle=1;fillColor=#f5f5f5;strokeColor=#666666;fontColor=#000000;" parent="1" vertex="1">
          <mxGeometry x="210" y="140" width="170" height="170" as="geometry" />
        </mxCell>
        <mxCell id="e6EF-_AEEUWjI02vnWhg-3" value="Input:" style="text;html=1;strokeColor=none;fillColor=none;align=center;verticalAlign=middle;whiteSpace=wrap;rounded=0;fontStyle=1;fontSize=15;" parent="1" vertex="1">
          <mxGeometry x="220" y="110" width="60" height="30" as="geometry" />
        </mxCell>
        <mxCell id="e6EF-_AEEUWjI02vnWhg-4" value="&lt;b&gt;positive&lt;/b&gt;" style="whiteSpace=wrap;html=1;rounded=1;fillColor=#990344;strokeColor=#6c8ebf;align=left;spacingTop=2;spacingLeft=5;spacingRight=5;spacingBottom=5;verticalAlign=top;opacity=30;fontColor=#000000;" parent="1" vertex="1">
          <mxGeometry x="385" y="340" width="180" height="30" as="geometry" />
        </mxCell>
        <mxCell id="e6EF-_AEEUWjI02vnWhg-5" value="BLOOMZ:" style="text;html=1;strokeColor=none;fillColor=none;align=center;verticalAlign=middle;whiteSpace=wrap;rounded=0;fontStyle=1;fontSize=15;" parent="1" vertex="1">
          <mxGeometry x="260" y="340" width="150" height="30" as="geometry" />
        </mxCell>
        <mxCell id="e6EF-_AEEUWjI02vnWhg-6" value="&lt;b&gt;positive&lt;/b&gt;" style="whiteSpace=wrap;html=1;rounded=1;fillColor=#c72d12;fontColor=#000000;strokeColor=#666666;align=left;spacingTop=5;spacingLeft=5;spacingRight=5;spacingBottom=5;verticalAlign=top;opacity=30;" parent="1" vertex="1">
          <mxGeometry x="385" y="380" width="180" height="30" as="geometry" />
        </mxCell>
        <mxCell id="e6EF-_AEEUWjI02vnWhg-7" value="BLOOMZ-MT:" style="text;html=1;strokeColor=none;fillColor=none;align=center;verticalAlign=middle;whiteSpace=wrap;rounded=0;fontStyle=1;fontSize=15;" parent="1" vertex="1">
          <mxGeometry x="224" y="380" width="190" height="30" as="geometry" />
        </mxCell>
        <mxCell id="e6EF-_AEEUWjI02vnWhg-11" value="mT0-13B:" style="text;html=1;strokeColor=none;fillColor=none;align=center;verticalAlign=middle;whiteSpace=wrap;rounded=0;fontStyle=1;fontSize=15;" parent="1" vertex="1">
          <mxGeometry x="240" y="420" width="190" height="30" as="geometry" />
        </mxCell>
        <mxCell id="e6EF-_AEEUWjI02vnWhg-12" value="&lt;b&gt;positive&lt;/b&gt;" style="whiteSpace=wrap;html=1;rounded=1;fillColor=#FB8500;fontColor=#000000;strokeColor=#666666;align=left;spacingTop=2;spacingLeft=5;spacingRight=5;spacingBottom=5;verticalAlign=top;opacity=30;" parent="1" vertex="1">
          <mxGeometry x="385" y="420" width="180" height="30" as="geometry" />
        </mxCell>
      </root>
    </mxGraphModel>
  </diagram>
  <diagram name="Copy of Page-1" id="GPm1WsI5oU8hlBooanVf">
    <mxGraphModel dx="984" dy="611" grid="1" gridSize="10" guides="1" tooltips="1" connect="1" arrows="1" fold="1" page="1" pageScale="1" pageWidth="827" pageHeight="1169" math="0" shadow="0">
      <root>
        <mxCell id="9uBYAMZDPAQ8RylmDFpF-0" />
        <mxCell id="9uBYAMZDPAQ8RylmDFpF-1" parent="9uBYAMZDPAQ8RylmDFpF-0" />
        <mxCell id="9uBYAMZDPAQ8RylmDFpF-2" value="" style="whiteSpace=wrap;html=1;rounded=1;fillColor=#f5f5f5;fontColor=#333333;strokeColor=#666666;opacity=50;" parent="9uBYAMZDPAQ8RylmDFpF-1" vertex="1">
          <mxGeometry x="190" y="100" width="400" height="380" as="geometry" />
        </mxCell>
        <mxCell id="9uBYAMZDPAQ8RylmDFpF-3" value="一个传奇的开端，一个不灭的神话，这不仅仅是一部电影，而是作为一个走进新时代的标签，永远彪炳史册。你认为这句话的立场是赞扬、中立还是批评？" style="whiteSpace=wrap;html=1;aspect=fixed;rounded=1;align=left;spacingTop=5;spacingLeft=5;spacingRight=5;spacingBottom=5;verticalAlign=top;fontSize=14;fontStyle=1;fillColor=#f5f5f5;strokeColor=#666666;fontColor=#000000;" parent="9uBYAMZDPAQ8RylmDFpF-1" vertex="1">
          <mxGeometry x="210" y="140" width="170" height="170" as="geometry" />
        </mxCell>
        <mxCell id="9uBYAMZDPAQ8RylmDFpF-4" value="Input:" style="text;html=1;strokeColor=none;fillColor=none;align=center;verticalAlign=middle;whiteSpace=wrap;rounded=0;fontStyle=1;fontSize=15;" parent="9uBYAMZDPAQ8RylmDFpF-1" vertex="1">
          <mxGeometry x="220" y="110" width="60" height="30" as="geometry" />
        </mxCell>
        <mxCell id="9uBYAMZDPAQ8RylmDFpF-5" value="&lt;b&gt;positive&lt;/b&gt;" style="whiteSpace=wrap;html=1;rounded=1;fillColor=#990344;strokeColor=#6c8ebf;align=left;spacingTop=2;spacingLeft=5;spacingRight=5;spacingBottom=5;verticalAlign=top;opacity=30;fontColor=#000000;" parent="9uBYAMZDPAQ8RylmDFpF-1" vertex="1">
          <mxGeometry x="385" y="340" width="180" height="30" as="geometry" />
        </mxCell>
        <mxCell id="9uBYAMZDPAQ8RylmDFpF-6" value="BLOOMZ:" style="text;html=1;strokeColor=none;fillColor=none;align=center;verticalAlign=middle;whiteSpace=wrap;rounded=0;fontStyle=1;fontSize=15;" parent="9uBYAMZDPAQ8RylmDFpF-1" vertex="1">
          <mxGeometry x="260" y="340" width="150" height="30" as="geometry" />
        </mxCell>
        <mxCell id="9uBYAMZDPAQ8RylmDFpF-7" value="&lt;b&gt;赞扬&lt;/b&gt;" style="whiteSpace=wrap;html=1;rounded=1;fillColor=#c72d12;fontColor=#000000;strokeColor=#666666;align=left;spacingTop=2;spacingLeft=5;spacingRight=5;spacingBottom=5;verticalAlign=top;opacity=30;" parent="9uBYAMZDPAQ8RylmDFpF-1" vertex="1">
          <mxGeometry x="385" y="380" width="180" height="30" as="geometry" />
        </mxCell>
        <mxCell id="9uBYAMZDPAQ8RylmDFpF-8" value="BLOOMZ-MT:" style="text;html=1;strokeColor=none;fillColor=none;align=center;verticalAlign=middle;whiteSpace=wrap;rounded=0;fontStyle=1;fontSize=15;" parent="9uBYAMZDPAQ8RylmDFpF-1" vertex="1">
          <mxGeometry x="224" y="380" width="190" height="30" as="geometry" />
        </mxCell>
        <mxCell id="9uBYAMZDPAQ8RylmDFpF-9" value="mT0-13B:" style="text;html=1;strokeColor=none;fillColor=none;align=center;verticalAlign=middle;whiteSpace=wrap;rounded=0;fontStyle=1;fontSize=15;" parent="9uBYAMZDPAQ8RylmDFpF-1" vertex="1">
          <mxGeometry x="240" y="420" width="190" height="30" as="geometry" />
        </mxCell>
        <mxCell id="9uBYAMZDPAQ8RylmDFpF-10" value="&lt;b&gt;赞扬&lt;/b&gt;" style="whiteSpace=wrap;html=1;rounded=1;fillColor=#FB8500;fontColor=#000000;strokeColor=#666666;align=left;spacingTop=2;spacingLeft=5;spacingRight=5;spacingBottom=5;verticalAlign=top;opacity=30;" parent="9uBYAMZDPAQ8RylmDFpF-1" vertex="1">
          <mxGeometry x="385" y="420" width="180" height="30" as="geometry" />
        </mxCell>
      </root>
    </mxGraphModel>
  </diagram>
  <diagram name="Copy of Copy of Copy of Page-1" id="JvHHhH2hnwVo1r-NOEqD">
    <mxGraphModel dx="984" dy="611" grid="1" gridSize="10" guides="1" tooltips="1" connect="1" arrows="1" fold="1" page="1" pageScale="1" pageWidth="827" pageHeight="1169" math="0" shadow="0">
      <root>
        <mxCell id="0UrX-KzwnI_HchN9ehQv-0" />
        <mxCell id="0UrX-KzwnI_HchN9ehQv-1" parent="0UrX-KzwnI_HchN9ehQv-0" />
        <mxCell id="0UrX-KzwnI_HchN9ehQv-2" value="" style="whiteSpace=wrap;html=1;rounded=1;fillColor=#f5f5f5;fontColor=#333333;strokeColor=#666666;opacity=50;" parent="0UrX-KzwnI_HchN9ehQv-1" vertex="1">
          <mxGeometry x="190" y="100" width="400" height="380" as="geometry" />
        </mxCell>
        <mxCell id="0UrX-KzwnI_HchN9ehQv-3" value="Suggest at least five related search terms to &quot;Mạng neural nhân tạo&quot;." style="whiteSpace=wrap;html=1;rounded=1;align=left;spacingTop=3;spacingLeft=5;spacingRight=5;spacingBottom=5;verticalAlign=top;fontSize=14;fontStyle=1;fillColor=#f5f5f5;strokeColor=#666666;fontColor=#000000;" parent="0UrX-KzwnI_HchN9ehQv-1" vertex="1">
          <mxGeometry x="210" y="140" width="170" height="90" as="geometry" />
        </mxCell>
        <mxCell id="0UrX-KzwnI_HchN9ehQv-4" value="Input:" style="text;html=1;strokeColor=none;fillColor=none;align=center;verticalAlign=middle;whiteSpace=wrap;rounded=0;fontStyle=1;fontSize=15;" parent="0UrX-KzwnI_HchN9ehQv-1" vertex="1">
          <mxGeometry x="220" y="110" width="60" height="30" as="geometry" />
        </mxCell>
        <mxCell id="0UrX-KzwnI_HchN9ehQv-5" value="&lt;b&gt;artificial neural network, neural network, artificial intelligence, machine learning, deep learning&lt;/b&gt;" style="whiteSpace=wrap;html=1;rounded=1;fillColor=#990344;strokeColor=#6c8ebf;align=left;spacingTop=2;spacingLeft=5;spacingRight=5;spacingBottom=5;verticalAlign=top;opacity=30;fontColor=#000000;" parent="0UrX-KzwnI_HchN9ehQv-1" vertex="1">
          <mxGeometry x="391" y="220" width="180" height="80" as="geometry" />
        </mxCell>
        <mxCell id="0UrX-KzwnI_HchN9ehQv-6" value="BLOOMZ:" style="text;html=1;strokeColor=none;fillColor=none;align=center;verticalAlign=middle;whiteSpace=wrap;rounded=0;fontStyle=1;fontSize=15;" parent="0UrX-KzwnI_HchN9ehQv-1" vertex="1">
          <mxGeometry x="264" y="245" width="150" height="30" as="geometry" />
        </mxCell>
        <mxCell id="0UrX-KzwnI_HchN9ehQv-7" value="&lt;b&gt;trí tuệ nhân tạo, mạng thần kinh, mạng nơ-ron, mạng nơ-ron nhân tạo, mạng nơ-ron sâu&lt;/b&gt;" style="whiteSpace=wrap;html=1;rounded=1;fillColor=#c72d12;fontColor=#000000;strokeColor=#666666;align=left;spacingTop=2;spacingLeft=5;spacingRight=5;spacingBottom=5;verticalAlign=top;opacity=30;" parent="0UrX-KzwnI_HchN9ehQv-1" vertex="1">
          <mxGeometry x="391" y="320" width="180" height="70" as="geometry" />
        </mxCell>
        <mxCell id="0UrX-KzwnI_HchN9ehQv-8" value="BLOOMZ-MT:" style="text;html=1;strokeColor=none;fillColor=none;align=center;verticalAlign=middle;whiteSpace=wrap;rounded=0;fontStyle=1;fontSize=15;" parent="0UrX-KzwnI_HchN9ehQv-1" vertex="1">
          <mxGeometry x="230" y="330" width="190" height="30" as="geometry" />
        </mxCell>
        <mxCell id="0UrX-KzwnI_HchN9ehQv-9" value="mT0-13B:" style="text;html=1;strokeColor=none;fillColor=none;align=center;verticalAlign=middle;whiteSpace=wrap;rounded=0;fontStyle=1;fontSize=15;" parent="0UrX-KzwnI_HchN9ehQv-1" vertex="1">
          <mxGeometry x="240" y="410" width="190" height="30" as="geometry" />
        </mxCell>
        <mxCell id="0UrX-KzwnI_HchN9ehQv-10" value="&lt;b&gt;mạng neural, tự động hóa, tự động hóa mạng neural&lt;/b&gt;" style="whiteSpace=wrap;html=1;rounded=1;fillColor=#FB8500;fontColor=#000000;strokeColor=#666666;align=left;spacingTop=2;spacingLeft=5;spacingRight=5;spacingBottom=5;verticalAlign=top;opacity=30;" parent="0UrX-KzwnI_HchN9ehQv-1" vertex="1">
          <mxGeometry x="391" y="405" width="180" height="40" as="geometry" />
        </mxCell>
      </root>
    </mxGraphModel>
  </diagram>
  <diagram name="Copy of Copy of Page-1" id="szBr4fKZFT7PUsmRd_DG">
    <mxGraphModel dx="984" dy="611" grid="1" gridSize="10" guides="1" tooltips="1" connect="1" arrows="1" fold="1" page="1" pageScale="1" pageWidth="827" pageHeight="1169" math="0" shadow="0">
      <root>
        <mxCell id="khxvVpOJOdEjryJcOVWL-0" />
        <mxCell id="khxvVpOJOdEjryJcOVWL-1" parent="khxvVpOJOdEjryJcOVWL-0" />
        <mxCell id="khxvVpOJOdEjryJcOVWL-2" value="" style="whiteSpace=wrap;html=1;rounded=1;fillColor=#f5f5f5;fontColor=#333333;strokeColor=#666666;opacity=50;" parent="khxvVpOJOdEjryJcOVWL-1" vertex="1">
          <mxGeometry x="190" y="100" width="400" height="380" as="geometry" />
        </mxCell>
        <mxCell id="khxvVpOJOdEjryJcOVWL-3" value="Proposez au moins cinq mots clés concernant «Réseau de neurones artificiels»." style="whiteSpace=wrap;html=1;rounded=1;align=left;spacingTop=5;spacingLeft=5;spacingRight=5;spacingBottom=5;verticalAlign=top;fontSize=14;fontStyle=1;fillColor=#f5f5f5;strokeColor=#666666;fontColor=#000000;" parent="khxvVpOJOdEjryJcOVWL-1" vertex="1">
          <mxGeometry x="210" y="140" width="170" height="90" as="geometry" />
        </mxCell>
        <mxCell id="khxvVpOJOdEjryJcOVWL-4" value="Input:" style="text;html=1;strokeColor=none;fillColor=none;align=center;verticalAlign=middle;whiteSpace=wrap;rounded=0;fontStyle=1;fontSize=15;" parent="khxvVpOJOdEjryJcOVWL-1" vertex="1">
          <mxGeometry x="220" y="110" width="60" height="30" as="geometry" />
        </mxCell>
        <mxCell id="khxvVpOJOdEjryJcOVWL-5" value="&lt;span&gt;artificial neural network, artificial intelligence, machine learning, deep learning, neural network&lt;/span&gt;" style="whiteSpace=wrap;html=1;rounded=1;fillColor=#990344;strokeColor=#000000;align=left;spacingTop=2;spacingLeft=5;spacingRight=5;spacingBottom=5;verticalAlign=top;opacity=30;fontStyle=1" parent="khxvVpOJOdEjryJcOVWL-1" vertex="1">
          <mxGeometry x="391" y="220" width="180" height="80" as="geometry" />
        </mxCell>
        <mxCell id="khxvVpOJOdEjryJcOVWL-6" value="BLOOMZ:" style="text;html=1;strokeColor=none;fillColor=none;align=center;verticalAlign=middle;whiteSpace=wrap;rounded=0;fontStyle=1;fontSize=15;" parent="khxvVpOJOdEjryJcOVWL-1" vertex="1">
          <mxGeometry x="264" y="245" width="150" height="30" as="geometry" />
        </mxCell>
        <mxCell id="khxvVpOJOdEjryJcOVWL-8" value="BLOOMZ-MT:" style="text;html=1;strokeColor=none;fillColor=none;align=center;verticalAlign=middle;whiteSpace=wrap;rounded=0;fontStyle=1;fontSize=15;" parent="khxvVpOJOdEjryJcOVWL-1" vertex="1">
          <mxGeometry x="230" y="345" width="190" height="30" as="geometry" />
        </mxCell>
        <mxCell id="khxvVpOJOdEjryJcOVWL-9" value="mT0-13B:" style="text;html=1;strokeColor=none;fillColor=none;align=center;verticalAlign=middle;whiteSpace=wrap;rounded=0;fontStyle=1;fontSize=15;" parent="khxvVpOJOdEjryJcOVWL-1" vertex="1">
          <mxGeometry x="244" y="425" width="190" height="30" as="geometry" />
        </mxCell>
        <mxCell id="khxvVpOJOdEjryJcOVWL-10" value="&lt;b&gt;apprentissage, réseau, intelligence artificielle&lt;/b&gt;" style="whiteSpace=wrap;html=1;rounded=1;fillColor=#FB8500;fontColor=#000000;strokeColor=#000000;align=left;spacingTop=2;spacingLeft=5;spacingRight=5;spacingBottom=5;verticalAlign=top;opacity=30;" parent="khxvVpOJOdEjryJcOVWL-1" vertex="1">
          <mxGeometry x="391" y="420" width="180" height="40" as="geometry" />
        </mxCell>
        <mxCell id="khxvVpOJOdEjryJcOVWL-7" value="&lt;span&gt;réseau de neurones artificiels, réseau de neurones, apprentissage automatique, apprentissage profond, apprentissage en profondeur&lt;/span&gt;" style="whiteSpace=wrap;html=1;rounded=1;fillColor=#c72d12;fontColor=#000000;strokeColor=#000000;align=left;spacingTop=2;spacingLeft=5;spacingRight=5;spacingBottom=5;verticalAlign=top;opacity=30;fontStyle=1" parent="khxvVpOJOdEjryJcOVWL-1" vertex="1">
          <mxGeometry x="391" y="310" width="180" height="100" as="geometry" />
        </mxCell>
      </root>
    </mxGraphModel>
  </diagram>
  <diagram name="Copy of Copy of Copy of Copy of Page-1" id="tzSWLhcU0Ls-_Nlsola9">
    <mxGraphModel dx="984" dy="611" grid="1" gridSize="10" guides="1" tooltips="1" connect="1" arrows="1" fold="1" page="1" pageScale="1" pageWidth="827" pageHeight="1169" math="0" shadow="0">
      <root>
        <mxCell id="g4j7h1xIbFPyk6PnAyNt-0" />
        <mxCell id="g4j7h1xIbFPyk6PnAyNt-1" parent="g4j7h1xIbFPyk6PnAyNt-0" />
        <mxCell id="g4j7h1xIbFPyk6PnAyNt-2" value="" style="whiteSpace=wrap;html=1;rounded=1;fillColor=#f5f5f5;fontColor=#333333;strokeColor=#666666;opacity=50;" parent="g4j7h1xIbFPyk6PnAyNt-1" vertex="1">
          <mxGeometry x="190" y="100" width="400" height="380" as="geometry" />
        </mxCell>
        <mxCell id="g4j7h1xIbFPyk6PnAyNt-3" value="Explain in a sentence in Telugu what is backpropagation in neural networks." style="whiteSpace=wrap;html=1;rounded=1;align=left;spacingTop=3;spacingLeft=5;spacingRight=5;spacingBottom=5;verticalAlign=top;fontSize=14;fontStyle=1;fillColor=#f5f5f5;strokeColor=#666666;fontColor=#000000;" parent="g4j7h1xIbFPyk6PnAyNt-1" vertex="1">
          <mxGeometry x="210" y="140" width="180" height="80" as="geometry" />
        </mxCell>
        <mxCell id="g4j7h1xIbFPyk6PnAyNt-4" value="Input:" style="text;html=1;strokeColor=none;fillColor=none;align=center;verticalAlign=middle;whiteSpace=wrap;rounded=0;fontStyle=1;fontSize=15;" parent="g4j7h1xIbFPyk6PnAyNt-1" vertex="1">
          <mxGeometry x="220" y="110" width="60" height="30" as="geometry" />
        </mxCell>
        <mxCell id="g4j7h1xIbFPyk6PnAyNt-5" value="&lt;b style=&quot;font-size: 11px;&quot;&gt;ఒక న్యూట్రానిక్ నెట్వర్క్ లో బ్యాక్ ప్రాసెసింగ్ అనేది ఒక రకమైన అభ్యసన విధానం, ఇది రీజియన్ ల యొక్క గత అభ్యసన ఫలితాలను ఉపయోగించి, రీజియన్ ల యొక్క ప్రస్తుత అభ్యసన ఫలితాలను సవరిస్తుంది.&lt;/b&gt;" style="whiteSpace=wrap;html=1;rounded=1;fillColor=#990344;strokeColor=#6c8ebf;align=left;spacingTop=2;spacingLeft=5;spacingRight=5;spacingBottom=5;verticalAlign=top;opacity=30;fontColor=#000000;fontSize=11;" parent="g4j7h1xIbFPyk6PnAyNt-1" vertex="1">
          <mxGeometry x="391" y="205" width="180" height="125" as="geometry" />
        </mxCell>
        <mxCell id="g4j7h1xIbFPyk6PnAyNt-6" value="BLOOMZ:" style="text;html=1;strokeColor=none;fillColor=none;align=center;verticalAlign=middle;whiteSpace=wrap;rounded=0;fontStyle=1;fontSize=15;" parent="g4j7h1xIbFPyk6PnAyNt-1" vertex="1">
          <mxGeometry x="264" y="260" width="150" height="30" as="geometry" />
        </mxCell>
        <mxCell id="g4j7h1xIbFPyk6PnAyNt-7" value="&lt;b style=&quot;font-size: 11px;&quot;&gt;ఒక న్యూట్రాన్‌కు తిరిగి పంపిన ప్రతిబింబాన్ని ఒక రకమైన బ్యాక్ ప్రాసెసింగ్ అంటారు.&lt;/b&gt;" style="whiteSpace=wrap;html=1;rounded=1;fillColor=#c72d12;fontColor=#000000;strokeColor=#666666;align=left;spacingTop=2;spacingLeft=5;spacingRight=5;spacingBottom=5;verticalAlign=top;opacity=30;fontSize=11;" parent="g4j7h1xIbFPyk6PnAyNt-1" vertex="1">
          <mxGeometry x="390" y="335" width="180" height="60" as="geometry" />
        </mxCell>
        <mxCell id="g4j7h1xIbFPyk6PnAyNt-8" value="BLOOMZ-MT:" style="text;html=1;strokeColor=none;fillColor=none;align=center;verticalAlign=middle;whiteSpace=wrap;rounded=0;fontStyle=1;fontSize=15;" parent="g4j7h1xIbFPyk6PnAyNt-1" vertex="1">
          <mxGeometry x="230" y="355" width="190" height="30" as="geometry" />
        </mxCell>
        <mxCell id="g4j7h1xIbFPyk6PnAyNt-9" value="mT0-13B:" style="text;html=1;strokeColor=none;fillColor=none;align=center;verticalAlign=middle;whiteSpace=wrap;rounded=0;fontStyle=1;fontSize=15;" parent="g4j7h1xIbFPyk6PnAyNt-1" vertex="1">
          <mxGeometry x="240" y="417.5" width="190" height="30" as="geometry" />
        </mxCell>
        <mxCell id="g4j7h1xIbFPyk6PnAyNt-10" value="&lt;b style=&quot;font-size: 11px;&quot;&gt;నేరుగా నేరుగా న్యూరోలాజికల్ నెట్ వర్క్ లలో బేక్ పోర్షన్ అంటే ఏమిటి?&lt;/b&gt;" style="whiteSpace=wrap;html=1;rounded=1;fillColor=#FB8500;fontColor=#000000;strokeColor=#666666;align=left;spacingTop=2;spacingLeft=5;spacingRight=5;spacingBottom=5;verticalAlign=top;opacity=30;fontSize=11;" parent="g4j7h1xIbFPyk6PnAyNt-1" vertex="1">
          <mxGeometry x="391" y="400" width="180" height="65" as="geometry" />
        </mxCell>
      </root>
    </mxGraphModel>
  </diagram>
  <diagram name="Copy of Copy of Copy of Copy of Copy of Page-1" id="YNNUIgaxl7cqQpXwaqU9">
    <mxGraphModel dx="984" dy="611" grid="1" gridSize="10" guides="1" tooltips="1" connect="1" arrows="1" fold="1" page="1" pageScale="1" pageWidth="827" pageHeight="1169" math="0" shadow="0">
      <root>
        <mxCell id="2OoxUvR2g6nab-ls0K76-0" />
        <mxCell id="2OoxUvR2g6nab-ls0K76-1" parent="2OoxUvR2g6nab-ls0K76-0" />
        <mxCell id="2OoxUvR2g6nab-ls0K76-2" value="" style="whiteSpace=wrap;html=1;rounded=1;fillColor=#f5f5f5;fontColor=#333333;strokeColor=#666666;opacity=50;" parent="2OoxUvR2g6nab-ls0K76-1" vertex="1">
          <mxGeometry x="190" y="100" width="400" height="380" as="geometry" />
        </mxCell>
        <mxCell id="2OoxUvR2g6nab-ls0K76-3" value="Why is the sky blue?" style="whiteSpace=wrap;html=1;rounded=1;align=left;spacingTop=2;spacingLeft=5;spacingRight=5;spacingBottom=5;verticalAlign=top;fontSize=14;fontStyle=1;fillColor=#f5f5f5;strokeColor=#666666;fontColor=#000000;" parent="2OoxUvR2g6nab-ls0K76-1" vertex="1">
          <mxGeometry x="210" y="150" width="180" height="30" as="geometry" />
        </mxCell>
        <mxCell id="2OoxUvR2g6nab-ls0K76-4" value="Input:" style="text;html=1;strokeColor=none;fillColor=none;align=center;verticalAlign=middle;whiteSpace=wrap;rounded=0;fontStyle=1;fontSize=15;" parent="2OoxUvR2g6nab-ls0K76-1" vertex="1">
          <mxGeometry x="220" y="110" width="60" height="30" as="geometry" />
        </mxCell>
        <mxCell id="2OoxUvR2g6nab-ls0K76-5" value="&lt;b&gt;Rayleigh scattering.&lt;/b&gt;" style="whiteSpace=wrap;html=1;rounded=1;fillColor=#990344;strokeColor=#6c8ebf;align=left;spacingTop=2;spacingLeft=5;spacingRight=5;spacingBottom=5;verticalAlign=top;opacity=30;fontColor=#000000;" parent="2OoxUvR2g6nab-ls0K76-1" vertex="1">
          <mxGeometry x="385" y="250" width="180" height="30" as="geometry" />
        </mxCell>
        <mxCell id="2OoxUvR2g6nab-ls0K76-6" value="BLOOMZ:" style="text;html=1;strokeColor=none;fillColor=none;align=center;verticalAlign=middle;whiteSpace=wrap;rounded=0;fontStyle=1;fontSize=15;" parent="2OoxUvR2g6nab-ls0K76-1" vertex="1">
          <mxGeometry x="255" y="250" width="150" height="30" as="geometry" />
        </mxCell>
        <mxCell id="2OoxUvR2g6nab-ls0K76-7" value="&lt;b&gt;Rayleigh scattering. The blue color of the sky is due to Rayleigh scattering of sunlight by atmospheric molecules.&lt;/b&gt;" style="whiteSpace=wrap;html=1;rounded=1;fillColor=#c72d12;fontColor=#000000;strokeColor=#666666;align=left;spacingTop=2;spacingLeft=5;spacingRight=5;spacingBottom=5;verticalAlign=top;opacity=30;" parent="2OoxUvR2g6nab-ls0K76-1" vertex="1">
          <mxGeometry x="385" y="287" width="180" height="84" as="geometry" />
        </mxCell>
        <mxCell id="2OoxUvR2g6nab-ls0K76-8" value="BLOOMZ with 10 tokens min length:" style="text;html=1;strokeColor=none;fillColor=none;align=center;verticalAlign=middle;whiteSpace=wrap;rounded=0;fontStyle=1;fontSize=15;" parent="2OoxUvR2g6nab-ls0K76-1" vertex="1">
          <mxGeometry x="220" y="310" width="160" height="30" as="geometry" />
        </mxCell>
        <mxCell id="O3_xMcSKK0xnBHlrCT_G-0" value="mT0-13B:" style="text;html=1;strokeColor=none;fillColor=none;align=center;verticalAlign=middle;whiteSpace=wrap;rounded=0;fontStyle=1;fontSize=15;" parent="2OoxUvR2g6nab-ls0K76-1" vertex="1">
          <mxGeometry x="255" y="380" width="150" height="30" as="geometry" />
        </mxCell>
        <mxCell id="X00QylVmKryNoRS8MEhX-0" value="&lt;b&gt;because of the sun&lt;/b&gt;" style="whiteSpace=wrap;html=1;rounded=1;fillColor=#FB8500;fontColor=#000000;strokeColor=#666666;align=left;spacingTop=2;spacingLeft=5;spacingRight=5;spacingBottom=5;verticalAlign=top;opacity=30;" parent="2OoxUvR2g6nab-ls0K76-1" vertex="1">
          <mxGeometry x="385" y="380" width="180" height="30" as="geometry" />
        </mxCell>
        <mxCell id="X00QylVmKryNoRS8MEhX-1" value="&lt;b&gt;because of the sun&#39;s radiation sensitivity to light&lt;/b&gt;" style="whiteSpace=wrap;html=1;rounded=1;fillColor=#FB8500;fontColor=#000000;strokeColor=#666666;align=left;spacingTop=2;spacingLeft=5;spacingRight=5;spacingBottom=5;verticalAlign=top;opacity=30;" parent="2OoxUvR2g6nab-ls0K76-1" vertex="1">
          <mxGeometry x="385" y="420" width="180" height="40" as="geometry" />
        </mxCell>
        <mxCell id="X00QylVmKryNoRS8MEhX-2" value="mT0-13B with 10 tokens min length:" style="text;html=1;strokeColor=none;fillColor=none;align=center;verticalAlign=middle;whiteSpace=wrap;rounded=0;fontStyle=1;fontSize=15;" parent="2OoxUvR2g6nab-ls0K76-1" vertex="1">
          <mxGeometry x="225" y="425" width="150" height="30" as="geometry" />
        </mxCell>
        <mxCell id="ZFSPte5bRbfG25vg2olB-0" value="BLOOM:" style="text;html=1;strokeColor=none;fillColor=none;align=center;verticalAlign=middle;whiteSpace=wrap;rounded=0;fontStyle=1;fontSize=15;" parent="2OoxUvR2g6nab-ls0K76-1" vertex="1">
          <mxGeometry x="255" y="200" width="150" height="30" as="geometry" />
        </mxCell>
        <mxCell id="ZFSPte5bRbfG25vg2olB-1" value="&lt;div&gt;&lt;b style=&quot;background-color: initial;&quot;&gt;&quot;Why is the sky blue?&quot;&lt;/b&gt;&lt;/div&gt;&lt;div&gt;&lt;b&gt;&quot;Why is the sky blue?&quot;&lt;/b&gt;&lt;/div&gt;&lt;div&gt;&lt;b&gt;&quot;Why is the sky blue?&quot;...&lt;/b&gt;&lt;/div&gt;" style="whiteSpace=wrap;html=1;rounded=1;fillColor=#12009e;strokeColor=#6c8ebf;align=left;spacingTop=2;spacingLeft=5;spacingRight=5;spacingBottom=5;verticalAlign=top;opacity=30;fontColor=#000000;" parent="2OoxUvR2g6nab-ls0K76-1" vertex="1">
          <mxGeometry x="385" y="185" width="180" height="60" as="geometry" />
        </mxCell>
      </root>
    </mxGraphModel>
  </diagram>
  <diagram id="Po5qWpqbbVU2PWY10zOS" name="Page-7">
    <mxGraphModel dx="984" dy="611" grid="1" gridSize="10" guides="1" tooltips="1" connect="1" arrows="1" fold="1" page="1" pageScale="1" pageWidth="827" pageHeight="1169" math="0" shadow="0">
      <root>
        <mxCell id="0" />
        <mxCell id="1" parent="0" />
        <mxCell id="aMD8fF_hE3mwHCm0ruIy-1" value="" style="whiteSpace=wrap;html=1;rounded=1;fillColor=#f5f5f5;fontColor=#333333;strokeColor=#666666;opacity=50;" parent="1" vertex="1">
          <mxGeometry x="190" y="100" width="400" height="380" as="geometry" />
        </mxCell>
        <mxCell id="aMD8fF_hE3mwHCm0ruIy-2" value="&lt;font style=&quot;font-size: 11px;&quot;&gt;Write a fairy tale about a troll saving a princess from a dangerous dragon. The fairy tale is a masterpiece that has achieved praise worldwide and its moral is &quot;Heroes Come in All Shapes and Sizes&quot;. Story (in Spanish):&lt;/font&gt;" style="whiteSpace=wrap;html=1;rounded=1;align=left;spacingTop=2;spacingLeft=5;spacingRight=5;spacingBottom=5;verticalAlign=top;fontSize=11;fontStyle=1;fillColor=#f5f5f5;strokeColor=#666666;fontColor=#000000;" parent="1" vertex="1">
          <mxGeometry x="210" y="150" width="310" height="70" as="geometry" />
        </mxCell>
        <mxCell id="aMD8fF_hE3mwHCm0ruIy-3" value="Input:" style="text;html=1;strokeColor=none;fillColor=none;align=center;verticalAlign=middle;whiteSpace=wrap;rounded=0;fontStyle=1;fontSize=15;" parent="1" vertex="1">
          <mxGeometry x="220" y="110" width="60" height="30" as="geometry" />
        </mxCell>
        <mxCell id="aMD8fF_hE3mwHCm0ruIy-4" value="&lt;b style=&quot;font-size: 11px;&quot;&gt;&lt;font style=&quot;font-size: 11px;&quot;&gt;Un reino en el bosque estaba bajo un terrible dragón. Todos los que intentaron derrotar al dragón murieron. El rey y la reina le pedían al pueblo que les diera un niño, que les gustaría salvar el reino de la maldición del dragón. Un día, la reina dio a luz a un niño con una cabeza enorme y ojos que brillaban como estrellas. El rey y la reina llamaron al niño Elliot. Elliot crecería y se convertiría en un joven gigante. Él salvaría al pueblo.&lt;/font&gt;&lt;/b&gt;" style="whiteSpace=wrap;html=1;rounded=1;fillColor=#990344;strokeColor=#6c8ebf;align=left;spacingTop=5;spacingLeft=5;spacingRight=5;spacingBottom=5;verticalAlign=top;opacity=30;fontColor=#000000;fontSize=11;spacing=5;" parent="1" vertex="1">
          <mxGeometry x="300" y="230" width="270" height="154" as="geometry" />
        </mxCell>
        <mxCell id="aMD8fF_hE3mwHCm0ruIy-5" value="BLOOMZ:" style="text;html=1;strokeColor=none;fillColor=none;align=center;verticalAlign=middle;whiteSpace=wrap;rounded=0;fontStyle=1;fontSize=15;" parent="1" vertex="1">
          <mxGeometry x="212.5" y="292" width="75" height="30" as="geometry" />
        </mxCell>
        <mxCell id="3HLtxuSaSg0uhkePR3H_-1" value="&lt;b style=&quot;font-size: 11px;&quot;&gt;En la noche de la primera tempestad, un gigante dragón, llamado Odín, golpeó a una princesa al dedo. Así que un troll, llamado Odín, fue a salvar a la princesa. Luego, este fue querido por todos.&lt;/b&gt;" style="whiteSpace=wrap;html=1;rounded=1;fillColor=#FB8500;fontColor=#000000;strokeColor=#666666;align=left;spacingTop=2;spacingLeft=5;spacingRight=5;spacingBottom=5;verticalAlign=top;opacity=30;fontSize=11;" parent="1" vertex="1">
          <mxGeometry x="300" y="390" width="270" height="70" as="geometry" />
        </mxCell>
        <mxCell id="3HLtxuSaSg0uhkePR3H_-2" value="mT0:" style="text;html=1;strokeColor=none;fillColor=none;align=center;verticalAlign=middle;whiteSpace=wrap;rounded=0;fontStyle=1;fontSize=15;" parent="1" vertex="1">
          <mxGeometry x="220" y="420" width="100" height="30" as="geometry" />
        </mxCell>
      </root>
    </mxGraphModel>
  </diagram>
  <diagram name="Copy of Page-7" id="uO8aSeHSbLeriX02XjP6">
    <mxGraphModel dx="984" dy="611" grid="1" gridSize="10" guides="1" tooltips="1" connect="1" arrows="1" fold="1" page="1" pageScale="1" pageWidth="827" pageHeight="1169" math="0" shadow="0">
      <root>
        <mxCell id="ptVlhke0Oilji3zCFSM1-0" />
        <mxCell id="ptVlhke0Oilji3zCFSM1-1" parent="ptVlhke0Oilji3zCFSM1-0" />
        <mxCell id="ptVlhke0Oilji3zCFSM1-2" value="" style="whiteSpace=wrap;html=1;rounded=1;fillColor=#f5f5f5;fontColor=#333333;strokeColor=#666666;" vertex="1" parent="ptVlhke0Oilji3zCFSM1-1">
          <mxGeometry x="190" y="100" width="400" height="380" as="geometry" />
        </mxCell>
        <mxCell id="ptVlhke0Oilji3zCFSM1-3" value="&lt;font style=&quot;font-size: 11px;&quot;&gt;Write a fairy tale about a troll saving a princess from a dangerous dragon. The fairy tale is a masterpiece that has achieved praise worldwide and its moral is &quot;Heroes Come in All Shapes and Sizes&quot;. Story (in Spanish):&lt;/font&gt;" style="whiteSpace=wrap;html=1;rounded=1;align=left;spacingTop=2;spacingLeft=5;spacingRight=5;spacingBottom=5;verticalAlign=top;fontSize=11;fontStyle=1;fillColor=#f5f5f5;strokeColor=#666666;fontColor=#000000;" vertex="1" parent="ptVlhke0Oilji3zCFSM1-1">
          <mxGeometry x="210" y="150" width="310" height="70" as="geometry" />
        </mxCell>
        <mxCell id="ptVlhke0Oilji3zCFSM1-4" value="Input:" style="text;html=1;strokeColor=none;fillColor=none;align=center;verticalAlign=middle;whiteSpace=wrap;rounded=0;fontStyle=1;fontSize=15;" vertex="1" parent="ptVlhke0Oilji3zCFSM1-1">
          <mxGeometry x="220" y="110" width="60" height="30" as="geometry" />
        </mxCell>
        <mxCell id="ptVlhke0Oilji3zCFSM1-5" value="&lt;b style=&quot;font-size: 11px;&quot;&gt;&lt;font style=&quot;font-size: 11px;&quot;&gt;Un reino en el bosque estaba bajo un terrible dragón. Todos los que intentaron derrotar al dragón murieron. El rey y la reina le pedían al pueblo que les diera un niño, que les gustaría salvar el reino de la maldición del dragón. Un día, la reina dio a luz a un niño con una cabeza enorme y ojos que brillaban como estrellas. El rey y la reina llamaron al niño Elliot. Elliot crecería y se convertiría en un joven gigante. Él salvaría al pueblo.&lt;/font&gt;&lt;/b&gt;" style="whiteSpace=wrap;html=1;rounded=1;fillColor=#990344;strokeColor=#6c8ebf;align=left;spacingTop=5;spacingLeft=5;spacingRight=5;spacingBottom=5;verticalAlign=top;opacity=30;fontColor=#000000;fontSize=11;spacing=5;" vertex="1" parent="ptVlhke0Oilji3zCFSM1-1">
          <mxGeometry x="300" y="230" width="270" height="154" as="geometry" />
        </mxCell>
        <mxCell id="ptVlhke0Oilji3zCFSM1-6" value="BLOOMZ:" style="text;html=1;strokeColor=none;fillColor=none;align=center;verticalAlign=middle;whiteSpace=wrap;rounded=0;fontStyle=1;fontSize=15;" vertex="1" parent="ptVlhke0Oilji3zCFSM1-1">
          <mxGeometry x="212.5" y="292" width="75" height="30" as="geometry" />
        </mxCell>
        <mxCell id="ptVlhke0Oilji3zCFSM1-7" value="&lt;b style=&quot;font-size: 11px;&quot;&gt;En la noche de la primera tempestad, un gigante dragón, llamado Odín, golpeó a una princesa al dedo. Así que un troll, llamado Odín, fue a salvar a la princesa. Luego, este fue querido por todos.&lt;/b&gt;" style="whiteSpace=wrap;html=1;rounded=1;fillColor=#FB8500;fontColor=#000000;strokeColor=#666666;align=left;spacingTop=2;spacingLeft=5;spacingRight=5;spacingBottom=5;verticalAlign=top;opacity=30;fontSize=11;" vertex="1" parent="ptVlhke0Oilji3zCFSM1-1">
          <mxGeometry x="300" y="390" width="270" height="70" as="geometry" />
        </mxCell>
        <mxCell id="ptVlhke0Oilji3zCFSM1-8" value="mT0:" style="text;html=1;strokeColor=none;fillColor=none;align=center;verticalAlign=middle;whiteSpace=wrap;rounded=0;fontStyle=1;fontSize=15;" vertex="1" parent="ptVlhke0Oilji3zCFSM1-1">
          <mxGeometry x="220" y="420" width="100" height="30" as="geometry" />
        </mxCell>
      </root>
    </mxGraphModel>
  </diagram>
  <diagram name="Copy of Page-7" id="kDwlM-gXW0uvdWDpWJS4">
    <mxGraphModel dx="984" dy="611" grid="1" gridSize="10" guides="1" tooltips="1" connect="1" arrows="1" fold="1" page="1" pageScale="1" pageWidth="827" pageHeight="1169" math="0" shadow="0">
      <root>
        <mxCell id="HTqX0WZq1fkhwt2J8BgE-0" />
        <mxCell id="HTqX0WZq1fkhwt2J8BgE-1" parent="HTqX0WZq1fkhwt2J8BgE-0" />
        <mxCell id="HTqX0WZq1fkhwt2J8BgE-2" value="" style="whiteSpace=wrap;html=1;rounded=1;fillColor=#f5f5f5;fontColor=#333333;strokeColor=#666666;opacity=50;" parent="HTqX0WZq1fkhwt2J8BgE-1" vertex="1">
          <mxGeometry x="190" y="100" width="400" height="380" as="geometry" />
        </mxCell>
        <mxCell id="HTqX0WZq1fkhwt2J8BgE-3" value="Write a fable about wood elves living in a forest that is suddenly invaded by ogres. The fable is a masterpiece that has achieved praise worldwide and its moral is &quot;Violence is the last refuge of the incompetent&quot;. Fable (in Hindi):" style="whiteSpace=wrap;html=1;rounded=1;align=left;spacingTop=2;spacingLeft=5;spacingRight=5;spacingBottom=5;verticalAlign=top;fontSize=11;fontStyle=1;fillColor=#f5f5f5;strokeColor=#666666;fontColor=#000000;" parent="HTqX0WZq1fkhwt2J8BgE-1" vertex="1">
          <mxGeometry x="210" y="140" width="330" height="70" as="geometry" />
        </mxCell>
        <mxCell id="HTqX0WZq1fkhwt2J8BgE-4" value="Input:" style="text;html=1;strokeColor=none;fillColor=none;align=center;verticalAlign=middle;whiteSpace=wrap;rounded=0;fontStyle=1;fontSize=15;" parent="HTqX0WZq1fkhwt2J8BgE-1" vertex="1">
          <mxGeometry x="220" y="110" width="60" height="30" as="geometry" />
        </mxCell>
        <mxCell id="HTqX0WZq1fkhwt2J8BgE-5" value="&lt;b style=&quot;font-size: 11px;&quot;&gt;एक समय की बात है, देवदार के वृक्षों से आच्छादित एक वन में एक समुदाय रहता था जिनमें से प्रत्येक व्यक्ति का कद एक फ़ीट का चार इंच ही था, परंतु वे लोग बहुत ही बुद्धिमान और सभ्य थे। उनके बीच परस्पर प्रेम और भाइचारे की भावना थी। अपने पड़ोसियों के प्रति उनके व्यवहार और आदर को देखकर लोग आश्चर्य में पड़ जाते थे। वे वृक्षों की छाल के बने हुए छोटे-छोटे कमरों में रहते थे। अपनी बुद्धिमत्ता के कारण तो वे लोग प्रसिद्ध थे ही, पर विशेष रूप से अपने सदगुणों के कारण उनका नाम दूर-दूर तक मशहूर था। वे लोग स्वयं को डंगऑल (Dongal) कहते थे। वे जिस वन में रहते थे, उसी वन की हरियाली और पेड़-पौधों के कारण ही तो वह वन इतना आकर्षक था। डंगऑल उस वन के स्वामी नहीं थे। उनकी बस एक शर्त थी कि वे हर एक पेड़ पर केवल एक ही घर बनाएँगे। एक दिन उस वन में घुस आए कुछ लोग जो स्वभाव से ही जंगली और असभ्य थे। उन्होंने उस वन में अपना आधिपत्य जमा लिया। वे बहुत विशाल कद के थे और उनकी आँखें सुर्ख़ लाल रंग की थे। उन्होंने उस वन की हरियाली नष्ट कर दी और वृक्षों को काटना शुरू कर दिया।&lt;/b&gt;" style="whiteSpace=wrap;html=1;rounded=1;fillColor=#990344;strokeColor=#6c8ebf;align=left;spacingTop=5;spacingLeft=10;spacingRight=10;spacingBottom=5;verticalAlign=top;opacity=30;fontColor=#000000;fontSize=11;spacing=5;" parent="HTqX0WZq1fkhwt2J8BgE-1" vertex="1">
          <mxGeometry x="270" y="220" width="310" height="250" as="geometry" />
        </mxCell>
        <mxCell id="HTqX0WZq1fkhwt2J8BgE-6" value="BLOOMZ:" style="text;html=1;strokeColor=none;fillColor=none;align=center;verticalAlign=middle;whiteSpace=wrap;rounded=0;fontStyle=1;fontSize=15;" parent="HTqX0WZq1fkhwt2J8BgE-1" vertex="1">
          <mxGeometry x="196" y="320" width="70" height="30" as="geometry" />
        </mxCell>
      </root>
    </mxGraphModel>
  </diagram>
  <diagram id="QDfFW6tP3y6DDqoXGbGo" name="Page-8">
    <mxGraphModel dx="984" dy="668" grid="1" gridSize="10" guides="1" tooltips="1" connect="1" arrows="1" fold="1" page="1" pageScale="1" pageWidth="827" pageHeight="1169" math="0" shadow="0">
      <root>
        <mxCell id="0" />
        <mxCell id="1" parent="0" />
      </root>
    </mxGraphModel>
  </diagram>
</mxfile>
